<svg width="30" height="32" viewBox="0 0 30 32" fill="none" xmlns="http://www.w3.org/2000/svg">
<path d="M29.0517 27.6624C29.0632 29.7984 27.3406 31.5377 25.2059 31.5492C25.0472 31.5505 24.8872 31.5416 24.7298 31.5224C22.7487 31.2293 21.2974 29.5054 21.346 27.5037V4.49C21.2986 2.4858 22.7538 0.761879 24.7362 0.47136C26.8569 0.223075 28.7778 1.74094 29.0261 3.8616C29.044 4.01774 29.053 4.17388 29.0517 4.3313V27.6624Z" fill="#F9AB00"/>
<path d="M4.80178 23.8485C6.93012 23.8485 8.65531 25.5737 8.65531 27.702C8.65531 29.8304 6.93012 31.5556 4.80178 31.5556C2.67344 31.5556 0.948242 29.8304 0.948242 27.702C0.948242 25.5737 2.67344 23.8485 4.80178 23.8485ZM14.9405 12.1701C12.8019 12.2879 11.1433 14.0809 11.1932 16.222V26.5719C11.1932 29.3812 12.4295 31.0859 14.2404 31.4493C16.3304 31.873 18.3666 30.5228 18.7902 28.4328C18.8427 28.1768 18.8683 27.917 18.867 27.656V16.0429C18.8708 13.9068 17.1431 12.1727 15.0071 12.1689C14.9853 12.1689 14.9623 12.1689 14.9405 12.1701Z" fill="#E37400"/>
</svg>
